<svg width="46" height="74" viewBox="0 0 46 74" fill="none" xmlns="http://www.w3.org/2000/svg">
<path d="M0 0H40C43.3137 0 46 2.68629 46 6V68C46 71.3137 43.3137 74 40 74H0V0Z" fill="#E8E8E8"/>
<path d="M27.2461 34.1476L27.0693 33.9707L26.8924 34.1476L23.0005 38.0396L19.1085 34.1483L18.9317 33.9716L18.7549 34.1483L17.9599 34.9433L17.7831 35.1201L17.96 35.2969L22.2944 39.6306C22.2945 39.6307 22.2946 39.6308 22.2947 39.6309C22.3873 39.724 22.4974 39.7979 22.6186 39.8483C22.74 39.8988 22.8701 39.9248 23.0016 39.9248C23.1331 39.9248 23.2632 39.8988 23.3846 39.8483C23.5058 39.7979 23.6159 39.724 23.7085 39.6308C23.7086 39.6307 23.7087 39.6307 23.7088 39.6306L28.041 35.2968L28.2177 35.1201L28.0411 34.9434L27.2461 34.1476Z" fill="#EE6284" stroke="#EE6284" stroke-width="0.5"/>
</svg>
